<?xml version="1.0" encoding="UTF-8" standalone="no"?>
<!DOCTYPE svg PUBLIC "-//W3C//DTD SVG 20010904//EN"
              "http://www.w3.org/TR/2001/REC-SVG-20010904/DTD/svg10.dtd">

<svg xmlns="http://www.w3.org/2000/svg"
     width="56.8889in" height="56.8889in"
     viewBox="0 0 4096 4096">
  <path id="Selection"
        fill="none" stroke="deepskyblue" stroke-width="12"
        d="M 1231.00,452.42
           C 1244.73,452.00 1264.00,454.00 1264.00,454.00
             1264.00,454.00 1321.00,460.73 1321.00,460.73
             1353.24,465.48 1397.11,472.79 1425.00,489.45
             1442.80,500.08 1462.00,522.50 1483.00,543.83
             1504.00,565.16 1593.84,653.08 1636.00,717.00
             1636.00,717.00 1664.69,762.00 1664.69,762.00
             1664.69,762.00 1687.19,797.00 1687.19,797.00
             1702.16,821.44 1723.95,856.98 1742.28,878.00
             1779.87,921.09 1831.07,956.85 1883.00,980.69
             1903.45,990.08 1924.60,997.50 1946.00,1004.34
             1979.49,1015.05 2013.96,1022.49 2049.00,1025.96
             2049.00,1025.96 2082.50,1028.75 2114.00,1028.00
             2145.50,1027.25 2178.42,1021.78 2198.00,1014.19
             2236.45,999.29 2275.15,964.85 2304.00,936.00
             2320.77,919.23 2344.04,894.55 2357.00,875.00
             2368.35,857.87 2378.32,839.25 2387.74,821.00
             2387.74,821.00 2399.31,798.00 2399.31,798.00
             2415.40,768.25 2432.23,738.34 2450.69,710.00
             2450.69,710.00 2487.12,657.51 2501.17,642.00
             2512.58,629.40 2531.48,616.67 2546.00,607.58
             2546.00,607.58 2598.00,577.22 2598.00,577.22
             2629.70,560.48 2633.75,553.83 2693.00,542.92
             2752.25,532.00 2811.70,551.17 2841.00,558.12
             2862.06,563.11 2889.73,570.03 2908.00,581.42
             2948.50,606.68 2962.38,648.15 2976.67,691.00
             2976.67,691.00 2994.00,749.33 2992.83,784.00
             2991.66,818.67 2973.25,872.13 2955.57,903.00
             2948.01,916.22 2927.55,943.15 2917.65,956.00
             2917.65,956.00 2852.42,1035.00 2852.42,1035.00
             2852.42,1035.00 2822.67,1068.67 2810.42,1086.00
             2798.18,1103.33 2779.81,1126.21 2767.01,1148.00
             2753.29,1171.36 2741.99,1196.40 2730.69,1221.00
             2730.69,1221.00 2721.31,1240.00 2721.31,1240.00
             2712.29,1259.64 2704.44,1280.36 2698.02,1301.00
             2690.47,1325.30 2685.07,1350.14 2679.79,1375.00
             2679.79,1375.00 2668.58,1432.00 2668.58,1432.00
             2666.51,1443.46 2663.02,1459.59 2663.00,1471.00
             2662.97,1491.85 2661.86,1507.29 2666.42,1528.00
             2671.82,1552.47 2677.22,1561.86 2685.58,1584.00
             2685.58,1584.00 2697.12,1621.00 2697.12,1621.00
             2706.79,1657.84 2711.50,1696.10 2714.09,1734.00
             2714.09,1734.00 2718.00,1788.00 2718.00,1788.00
             2718.26,1810.48 2718.61,1831.98 2713.11,1854.00
             2706.89,1878.88 2687.85,1917.13 2676.86,1942.00
             2661.09,1977.67 2645.95,2016.00 2624.31,2047.00
             2602.67,2078.00 2506.75,2188.00 2506.75,2188.00
             2498.21,2198.26 2479.42,2218.99 2473.45,2229.00
             2465.22,2242.81 2460.03,2266.95 2460.00,2283.00
             2460.00,2283.00 2460.00,2371.00 2460.00,2371.00
             2460.00,2371.00 2459.33,2417.33 2464.44,2451.00
             2469.54,2484.67 2525.40,2619.00 2525.40,2619.00
             2533.76,2639.91 2541.73,2660.09 2542.00,2683.00
             2542.28,2707.48 2535.25,2738.35 2531.42,2763.00
             2526.58,2794.21 2521.88,2837.51 2506.69,2865.00
             2500.93,2875.43 2476.67,2906.67 2421.00,2953.71
             2365.33,3000.76 2292.27,3040.43 2278.00,3044.97
             2242.72,3056.20 2205.33,3059.33 2164.00,3057.00
             2122.67,3054.67 2044.65,3042.30 2025.00,3035.31
             2005.83,3028.49 1983.36,3016.43 1965.00,3007.25
             1965.00,3007.25 1869.00,2957.78 1869.00,2957.78
             1869.00,2957.78 1722.00,2875.60 1722.00,2875.60
             1722.00,2875.60 1638.00,2825.33 1597.00,2797.33
             1556.00,2769.33 1451.33,2696.00 1417.00,2668.42
             1382.67,2640.85 1335.06,2597.98 1303.67,2551.00
             1291.09,2532.18 1281.30,2517.63 1273.44,2496.00
             1265.76,2474.89 1263.45,2443.57 1261.91,2421.00
             1261.91,2421.00 1258.00,2354.00 1258.00,2354.00
             1258.00,2354.00 1256.09,2323.00 1256.09,2323.00
             1254.80,2304.17 1254.44,2277.59 1248.31,2260.00
             1240.01,2236.23 1218.75,2208.82 1203.21,2189.00
             1203.21,2189.00 1167.08,2144.00 1167.08,2144.00
             1167.08,2144.00 1151.91,2126.00 1151.91,2126.00
             1140.24,2113.47 1119.45,2096.80 1105.00,2087.34
             1105.00,2087.34 1077.00,2068.76 1077.00,2068.76
             1070.49,2063.78 1058.76,2052.19 1053.17,2046.00
             1053.17,2046.00 1038.99,2030.09 1038.99,2030.09
             1031.28,2022.77 1014.63,2011.96 1005.00,2006.89
             983.01,1995.30 949.07,1995.56 925.00,1999.44
             925.00,1999.44 903.00,2004.35 903.00,2004.35
             891.31,2006.99 875.92,2010.20 865.00,2014.87
             865.00,2014.87 837.00,2029.74 837.00,2029.74
             827.93,2034.42 815.00,2038.37 808.00,2046.18
             801.00,2054.00 779.33,2080.33 771.99,2089.00
             764.64,2097.67 746.85,2114.33 747.09,2131.00
             747.33,2147.67 774.66,2195.00 766.00,2231.00
             757.33,2267.00 703.94,2313.60 687.67,2338.00
             679.87,2349.69 671.57,2362.24 672.51,2377.00
             675.27,2420.38 710.60,2474.00 720.42,2489.00
             730.25,2504.00 735.34,2514.18 739.31,2522.00
             743.27,2529.82 752.90,2551.27 752.00,2572.00
             751.09,2592.73 738.40,2613.21 720.00,2622.63
             705.93,2629.83 692.46,2631.18 677.00,2631.00
             648.65,2630.66 619.57,2614.75 600.00,2611.43
             595.26,2610.63 588.73,2609.27 577.00,2609.51
             565.27,2609.75 541.98,2610.84 525.00,2601.69
             514.28,2595.92 499.28,2584.90 491.09,2576.00
             482.14,2566.27 482.96,2559.77 470.00,2553.27
             470.00,2553.27 435.00,2536.69 435.00,2536.69
             408.84,2527.16 388.42,2526.36 372.06,2500.00
             366.77,2491.47 360.70,2477.84 358.67,2468.00
             356.36,2456.88 357.00,2445.29 357.00,2434.00
             357.00,2434.00 357.00,2381.00 357.00,2381.00
             356.86,2369.08 351.37,2336.76 346.77,2326.00
             341.90,2314.59 338.69,2316.47 330.69,2294.00
             330.69,2294.00 316.12,2240.00 316.12,2240.00
             310.18,2214.95 304.70,2187.81 305.00,2162.00
             305.32,2135.26 317.72,2089.84 326.33,2064.00
             331.65,2048.06 346.09,2010.36 353.27,1996.00
             353.27,1996.00 367.58,1972.00 367.58,1972.00
             370.95,1966.61 374.43,1960.92 378.46,1956.00
             384.25,1948.95 393.82,1942.16 399.00,1937.71
             404.18,1933.27 408.00,1929.82 412.00,1926.24
             416.00,1922.65 430.00,1914.94 430.00,1914.94
             442.24,1907.43 452.96,1900.45 467.00,1896.43
             486.57,1890.82 504.36,1890.37 525.00,1891.00
             545.64,1891.64 571.45,1894.36 591.00,1894.00
             610.55,1893.64 628.90,1885.71 647.00,1880.42
             647.00,1880.42 697.00,1863.05 697.00,1863.05
             712.42,1857.40 727.79,1852.02 742.00,1843.55
             751.67,1837.78 759.15,1830.15 768.00,1823.47
             768.00,1823.47 798.00,1800.00 798.00,1800.00
             807.33,1792.54 816.32,1785.44 822.55,1775.00
             833.51,1756.62 837.32,1724.96 843.42,1703.00
             843.42,1703.00 852.18,1673.09 856.58,1654.00
             860.97,1634.91 864.00,1583.82 866.00,1560.00
             868.00,1536.18 871.96,1507.00 871.96,1507.00
             871.96,1507.00 873.64,1492.18 874.00,1476.00
             874.36,1459.82 872.28,1441.00 872.28,1441.00
             867.83,1406.88 853.53,1382.67 839.70,1352.00
             829.80,1330.06 819.96,1308.57 820.00,1284.00
             820.00,1284.00 825.00,1235.00 825.00,1235.00
             825.00,1235.00 830.73,1188.00 830.73,1188.00
             833.06,1172.17 832.84,1164.09 837.43,1148.00
             837.43,1148.00 847.81,1112.00 847.81,1112.00
             855.03,1092.95 865.97,1070.58 866.00,1050.00
             866.00,1050.00 867.09,1006.36 866.00,992.00
             864.91,977.64 862.17,949.00 862.17,949.00
             862.17,949.00 859.83,920.00 859.83,920.00
             859.83,920.00 856.00,883.00 856.00,883.00
             856.00,883.00 854.00,854.00 854.00,854.00
             853.88,843.59 854.13,832.90 857.70,823.00
             860.02,816.56 864.30,810.76 867.95,805.00
             867.95,805.00 886.00,777.00 886.00,777.00
             886.00,777.00 928.98,712.00 928.98,712.00
             928.98,712.00 945.02,688.00 945.02,688.00
             945.02,688.00 990.00,623.00 990.00,623.00
             1003.15,603.27 1023.92,570.94 1039.17,554.00
             1068.52,521.39 1106.06,498.22 1145.00,478.75
             1157.87,472.32 1176.61,462.26 1190.00,458.43
             1204.17,454.37 1217.27,452.85 1231.00,452.42 Z" />
</svg>
