<?xml version="1.0" encoding="UTF-8" standalone="no"?>
<!DOCTYPE svg PUBLIC "-//W3C//DTD SVG 20010904//EN"
              "http://www.w3.org/TR/2001/REC-SVG-20010904/DTD/svg10.dtd">

<svg xmlns="http://www.w3.org/2000/svg"
     width="19.5556in" height="19.5556in"
     viewBox="0 0 1408 1408">
  <path id="Imported Path"
        fill="none" stroke="deepskyblue" stroke-width="2.5"
        d="M 605.00,126.53
           C 608.15,125.80 621.30,125.95 631.00,126.00
             640.70,126.05 642.50,129.45 650.00,134.58
             657.50,139.71 678.75,155.05 680.72,156.22
             682.69,157.39 686.95,155.95 690.00,155.15
             694.25,154.05 697.77,153.54 702.00,155.15
             709.94,158.15 717.30,169.25 724.00,168.55
             730.70,167.85 733.95,164.73 739.00,162.64
             744.05,160.55 771.60,147.06 775.00,146.04
             778.40,145.02 781.75,144.65 786.00,143.99
             790.25,143.33 844.36,130.40 856.66,132.00
             868.94,133.60 890.10,144.75 895.00,145.99
             899.90,147.23 921.90,143.68 926.00,145.99
             930.10,148.30 942.00,158.64 945.00,161.42
             948.00,164.20 950.20,165.40 950.77,170.00
             951.34,174.60 945.10,194.60 947.13,202.00
             949.16,209.40 957.80,230.20 958.62,234.00
             959.44,237.80 959.60,245.00 960.17,250.00
             960.74,255.00 962.30,268.30 965.75,275.75
             969.20,283.20 979.20,287.76 984.55,292.73
             989.90,297.70 992.00,301.70 995.36,308.18
             998.72,314.66 1001.20,317.65 1006.00,322.15
             1010.80,326.65 1012.80,328.05 1023.45,335.27
             1034.10,342.49 1103.20,386.30 1112.00,392.74
             1120.80,399.18 1159.20,429.68 1174.00,442.09
             1188.80,454.50 1238.84,514.95 1251.42,531.00
             1264.00,547.06 1283.06,571.35 1287.00,577.00
             1290.94,582.66 1298.69,591.35 1303.97,607.00
             1309.25,622.66 1307.71,642.62 1307.00,652.00
             1306.29,661.39 1301.86,687.03 1299.29,707.00
             1296.73,726.99 1297.27,745.10 1297.00,749.00
             1296.73,752.91 1296.29,755.86 1296.04,759.00
             1295.79,762.15 1296.14,766.11 1296.04,769.00
             1295.94,771.90 1295.06,780.44 1294.96,784.00
             1294.86,787.57 1295.13,793.09 1294.96,798.00
             1294.79,802.91 1294.40,806.19 1294.00,811.00
             1293.60,815.83 1293.53,822.19 1293.00,828.00
             1292.47,833.83 1291.13,845.67 1291.00,850.00
             1290.87,854.33 1291.34,855.64 1291.00,859.00
             1290.66,862.37 1289.38,870.26 1289.09,874.00
             1288.80,877.75 1287.64,902.26 1287.00,909.00
             1286.36,915.75 1285.10,940.20 1284.35,944.00
             1283.60,947.81 1278.60,952.45 1275.00,955.91
             1271.40,959.38 1254.75,973.25 1252.00,976.04
             1249.25,978.83 1242.95,984.86 1242.10,991.00
             1241.25,997.15 1251.22,1014.07 1254.58,1020.00
             1258.43,1026.83 1269.91,1046.91 1271.21,1052.00
             1272.51,1057.09 1272.90,1068.49 1273.00,1072.00
             1273.10,1075.52 1273.18,1101.01 1273.00,1105.00
             1272.82,1109.00 1272.30,1114.40 1272.09,1117.00
             1271.88,1119.61 1272.14,1133.29 1268.86,1138.96
             1265.58,1144.64 1253.16,1150.19 1247.00,1153.26
             1235.54,1158.96 1206.11,1171.28 1194.00,1173.50
             1181.89,1175.71 1155.55,1174.75 1148.00,1175.00
             1140.45,1175.26 1133.60,1172.99 1130.00,1171.92
             1126.40,1170.85 1123.75,1170.31 1121.31,1171.92
             1118.87,1173.55 1118.60,1176.31 1118.15,1180.00
             1117.70,1183.70 1108.80,1248.00 1102.28,1268.00
             1095.76,1288.01 1094.00,1294.20 1091.99,1299.00
             1089.98,1303.81 1076.87,1333.39 1071.10,1341.00
             1063.89,1350.52 1054.10,1357.52 1045.00,1365.08
             1039.32,1369.80 1027.11,1380.44 1021.00,1383.12
             1014.85,1385.84 1011.30,1386.14 1005.00,1387.32
             989.44,1390.23 986.33,1391.20 970.00,1391.00
             958.86,1390.88 944.73,1388.02 935.00,1382.48
             914.20,1370.67 901.34,1343.76 891.69,1323.00
             882.04,1302.26 869.82,1278.33 868.42,1275.00
             867.02,1271.68 847.60,1210.65 846.65,1207.00
             845.70,1203.35 837.55,1160.55 836.65,1155.00
             835.75,1149.46 830.11,1121.82 828.43,1112.00
             826.75,1102.19 826.27,1097.28 824.88,1091.00
             823.49,1084.73 822.20,1074.00 817.73,1070.99
             815.19,1069.27 811.46,1068.91 807.00,1068.96
             802.54,1069.02 793.46,1068.59 782.00,1068.00
             770.54,1067.43 718.40,1064.35 705.00,1062.71
             691.60,1061.07 680.42,1048.02 671.09,1038.00
             665.37,1031.87 650.84,1015.31 648.13,1008.00
             646.45,1003.48 646.01,996.83 646.00,992.00
             645.99,984.55 646.85,964.56 648.78,958.00
             650.83,951.04 655.43,943.15 658.69,937.00
             661.95,930.85 696.10,872.35 698.86,868.00
             701.62,863.66 706.51,853.95 706.89,847.00
             707.42,837.61 699.50,823.35 696.25,817.00
             693.00,810.65 687.55,799.55 683.69,792.00
             679.83,784.46 670.95,767.65 667.43,761.00
             663.91,754.35 660.48,737.51 660.09,730.00
             659.70,722.50 659.75,717.60 658.86,714.00
             657.97,710.40 654.40,701.11 650.35,690.00
             646.30,678.91 646.26,670.29 639.93,660.00
             634.80,651.67 604.69,646.95 596.50,648.50
             589.74,649.78 582.55,649.06 576.25,651.25
             568.45,653.96 560.64,657.54 549.75,660.25
             541.15,662.39 529.65,659.04 519.75,660.50
             509.11,662.07 500.77,670.81 490.75,676.50
             482.16,681.37 469.25,684.75 464.25,688.75
             459.25,692.75 459.13,697.31 451.00,707.50
             443.01,717.51 441.25,722.92 430.00,734.67
             425.26,739.62 414.22,752.76 408.00,756.00
             399.47,760.45 388.88,760.55 383.00,769.00
             369.69,788.12 369.60,823.03 358.25,831.75
             339.07,846.49 299.04,832.90 259.50,820.00
             248.34,816.36 217.20,822.77 202.25,816.50
             194.14,813.10 186.76,808.45 179.75,804.00
             170.23,797.96 153.47,795.85 146.25,789.75
             143.35,787.30 136.08,776.09 133.00,757.75
             130.99,745.82 129.80,731.88 129.25,716.50
             128.95,708.20 127.63,699.80 127.00,691.00
             126.38,682.36 122.26,675.06 120.25,666.50
             119.45,663.09 119.35,652.87 116.25,646.00
             112.65,638.00 109.54,633.24 109.25,629.00
             108.90,623.84 106.51,615.20 108.75,608.25
             111.39,600.06 115.29,593.60 115.75,588.75
             117.46,570.80 120.50,569.75 124.50,559.00
             128.50,548.25 120.75,537.50 122.50,527.25
             123.21,523.11 128.19,514.40 134.75,504.25
             139.60,496.75 145.01,488.09 151.75,481.75
             158.45,475.45 168.29,473.34 174.25,470.25
             183.13,465.65 195.97,464.35 207.25,460.25
             223.32,454.40 246.70,454.57 254.36,453.82
             262.02,453.07 273.45,470.36 281.09,461.64
             288.73,452.91 289.50,450.50 292.50,442.75
             295.50,435.00 302.53,431.81 305.75,430.50
             314.87,426.79 322.70,420.41 325.75,419.25
             351.34,409.48 370.82,405.92 373.50,404.25
             383.14,398.25 389.76,390.45 392.50,385.50
             396.51,378.27 399.87,369.91 401.75,367.00
             403.63,364.09 419.92,356.41 422.00,352.25
             424.08,348.09 431.75,342.10 435.00,336.00
             438.25,329.90 450.67,317.47 452.81,314.01
             454.95,310.55 462.60,304.58 466.00,302.34
             470.89,299.13 481.75,299.54 486.00,300.67
             490.25,301.80 494.05,304.00 497.00,304.39
             499.95,304.78 503.25,301.18 507.00,299.30
             509.38,298.10 512.65,297.62 514.69,296.00
             516.94,294.20 517.15,290.70 522.00,281.10
             526.85,271.50 527.60,267.00 528.39,263.00
             529.18,259.00 528.45,254.65 530.85,251.13
             532.90,248.13 535.52,247.82 537.90,246.17
             541.59,243.59 542.57,239.29 548.00,240.33
             550.48,240.80 562.07,246.15 567.00,248.35
             571.93,250.55 586.25,262.83 600.00,263.00
             606.60,263.08 616.50,264.13 622.00,260.35
             624.61,258.55 628.32,255.03 629.40,252.00
             631.92,244.92 625.02,229.53 618.98,226.42
             612.94,223.31 612.13,223.05 596.00,223.00
             579.87,222.95 577.16,215.20 570.20,203.00
             563.24,190.80 558.76,186.11 558.47,177.16
             558.18,168.21 560.06,161.30 561.63,157.00
             563.20,152.70 573.87,140.90 578.00,137.81
             582.13,134.73 601.85,127.26 605.00,126.53 Z" />
</svg>
