<?xml version="1.0" encoding="UTF-8" standalone="no"?>
<!DOCTYPE svg PUBLIC "-//W3C//DTD SVG 20010904//EN"
              "http://www.w3.org/TR/2001/REC-SVG-20010904/DTD/svg10.dtd">

<svg xmlns="http://www.w3.org/2000/svg"
     width="24.8889in" height="19.5556in"
     viewBox="0 0 1792 1408">
  <path id="Imported Path"
        fill="none" stroke="deepskyblue" stroke-width="2.5"
        d="M 989.00,126.53
           C 992.15,125.80 1005.30,125.95 1015.00,126.00
             1024.70,126.05 1026.50,129.45 1034.00,134.58
             1041.50,139.71 1062.75,155.05 1064.72,156.22
             1066.69,157.39 1070.95,155.95 1074.00,155.15
             1078.25,154.05 1081.77,153.54 1086.00,155.15
             1093.94,158.15 1101.30,169.25 1108.00,168.55
             1114.70,167.85 1117.95,164.73 1123.00,162.64
             1128.05,160.55 1155.60,147.06 1159.00,146.04
             1162.40,145.02 1165.75,144.65 1170.00,143.99
             1174.25,143.33 1228.36,130.40 1240.66,132.00
             1252.94,133.60 1274.10,144.75 1279.00,145.99
             1283.90,147.23 1305.90,143.68 1310.00,145.99
             1314.10,148.30 1326.00,158.64 1329.00,161.42
             1332.00,164.20 1334.20,165.40 1334.77,170.00
             1335.34,174.60 1329.10,194.60 1331.13,202.00
             1333.16,209.40 1341.80,230.20 1342.62,234.00
             1343.44,237.80 1343.60,245.00 1344.17,250.00
             1344.74,255.00 1346.30,268.30 1349.75,275.75
             1353.20,283.20 1363.20,287.76 1368.55,292.73
             1373.90,297.70 1376.00,301.70 1379.36,308.18
             1382.72,314.66 1385.20,317.65 1390.00,322.15
             1394.80,326.65 1396.80,328.05 1407.45,335.27
             1418.10,342.49 1487.20,386.30 1496.00,392.74
             1504.80,399.18 1543.20,429.68 1558.00,442.09
             1572.80,454.50 1622.84,514.95 1635.42,531.00
             1648.00,547.06 1667.06,571.35 1671.00,577.00
             1674.94,582.66 1682.69,591.35 1687.97,607.00
             1693.25,622.66 1691.71,642.62 1691.00,652.00
             1690.29,661.39 1685.86,687.03 1683.29,707.00
             1680.73,726.99 1681.27,745.10 1681.00,749.00
             1680.73,752.91 1680.29,755.86 1680.04,759.00
             1679.79,762.15 1680.14,766.11 1680.04,769.00
             1679.94,771.90 1679.06,780.44 1678.96,784.00
             1678.86,787.57 1679.13,793.09 1678.96,798.00
             1678.79,802.91 1678.40,806.19 1678.00,811.00
             1677.60,815.83 1677.53,822.19 1677.00,828.00
             1676.47,833.83 1675.13,845.67 1675.00,850.00
             1674.87,854.33 1675.34,855.64 1675.00,859.00
             1674.66,862.37 1673.38,870.26 1673.09,874.00
             1672.80,877.75 1671.64,902.26 1671.00,909.00
             1670.36,915.75 1669.10,940.20 1668.35,944.00
             1667.60,947.81 1662.60,952.45 1659.00,955.91
             1655.40,959.38 1638.75,973.25 1636.00,976.04
             1633.25,978.83 1626.95,984.86 1626.10,991.00
             1625.25,997.15 1635.22,1014.07 1638.58,1020.00
             1642.43,1026.83 1653.91,1046.91 1655.21,1052.00
             1656.51,1057.09 1656.90,1068.49 1657.00,1072.00
             1657.10,1075.52 1657.18,1101.01 1657.00,1105.00
             1656.82,1109.00 1656.30,1114.40 1656.09,1117.00
             1655.88,1119.61 1656.14,1133.29 1652.86,1138.96
             1649.58,1144.64 1637.16,1150.19 1631.00,1153.26
             1619.54,1158.96 1590.11,1171.28 1578.00,1173.50
             1565.89,1175.71 1539.55,1174.75 1532.00,1175.00
             1524.45,1175.26 1517.60,1172.99 1514.00,1171.92
             1510.40,1170.85 1507.75,1170.31 1505.31,1171.92
             1502.87,1173.55 1502.60,1176.31 1502.15,1180.00
             1501.70,1183.70 1492.80,1248.00 1486.28,1268.00
             1479.76,1288.01 1478.00,1294.20 1475.99,1299.00
             1473.98,1303.81 1460.87,1333.39 1455.10,1341.00
             1447.89,1350.52 1438.10,1357.52 1429.00,1365.08
             1423.32,1369.80 1411.11,1380.44 1405.00,1383.12
             1398.85,1385.84 1395.30,1386.14 1389.00,1387.32
             1373.44,1390.23 1370.33,1391.20 1354.00,1391.00
             1342.86,1390.88 1328.73,1388.02 1319.00,1382.48
             1298.20,1370.67 1285.34,1343.76 1275.69,1323.00
             1266.04,1302.26 1253.82,1278.33 1252.42,1275.00
             1251.02,1271.68 1231.60,1210.65 1230.65,1207.00
             1229.70,1203.35 1221.55,1160.55 1220.65,1155.00
             1219.75,1149.46 1214.11,1121.82 1212.43,1112.00
             1210.75,1102.19 1210.27,1097.28 1208.88,1091.00
             1207.49,1084.73 1206.20,1074.00 1201.73,1070.99
             1199.19,1069.27 1195.46,1068.91 1191.00,1068.96
             1186.54,1069.02 1177.46,1068.59 1166.00,1068.00
             1154.54,1067.43 1102.40,1064.35 1089.00,1062.71
             1075.60,1061.07 1064.42,1048.02 1055.09,1038.00
             1049.37,1031.87 1034.84,1015.31 1032.13,1008.00
             1030.45,1003.48 1030.01,996.83 1030.00,992.00
             1029.99,984.55 1030.85,964.56 1032.78,958.00
             1034.83,951.04 1039.43,943.15 1042.69,937.00
             1045.95,930.85 1080.10,872.35 1082.86,868.00
             1085.62,863.66 1090.51,853.95 1090.89,847.00
             1091.42,837.61 1083.50,823.35 1080.25,817.00
             1077.00,810.65 1071.55,799.55 1067.69,792.00
             1063.83,784.46 1054.95,767.65 1051.43,761.00
             1047.91,754.35 1044.48,737.51 1044.09,730.00
             1043.70,722.50 1043.75,717.60 1042.86,714.00
             1041.97,710.40 1038.40,701.11 1034.35,690.00
             1030.30,678.91 1030.26,670.29 1023.93,660.00
             1018.80,651.67 988.69,646.95 980.50,648.50
             973.74,649.78 966.55,649.06 960.25,651.25
             952.45,653.96 944.64,657.54 933.75,660.25
             925.15,662.39 913.65,659.04 903.75,660.50
             893.11,662.07 884.77,670.81 874.75,676.50
             866.16,681.37 853.25,684.75 848.25,688.75
             843.25,692.75 843.13,697.31 835.00,707.50
             827.01,717.51 825.25,722.92 814.00,734.67
             809.26,739.62 798.22,752.76 792.00,756.00
             783.47,760.45 772.88,760.55 767.00,769.00
             753.69,788.12 753.60,823.03 742.25,831.75
             723.07,846.49 683.04,832.90 643.50,820.00
             632.34,816.36 610.50,798.38 603.33,796.33
             596.17,794.29 570.37,796.62 564.88,799.50
             559.38,802.38 555.65,814.20 550.75,820.88
             544.48,829.38 537.15,836.40 533.25,843.25
             528.53,851.53 527.68,859.57 525.00,869.67
             518.41,894.49 519.11,920.10 507.00,933.67
             501.31,940.04 481.50,947.12 477.38,950.75
             473.25,954.38 471.68,963.14 462.33,965.33
             454.93,967.07 442.49,964.45 438.36,963.45
             434.24,962.45 418.23,953.58 414.82,951.18
             411.78,949.05 402.12,941.89 400.00,938.64
             397.88,935.39 389.96,925.10 388.88,922.62
             386.62,917.50 381.88,904.38 376.33,900.33
             370.79,896.29 356.02,892.89 342.67,894.33
             331.30,895.56 317.98,900.14 307.67,899.00
             291.37,897.21 279.89,890.94 276.62,887.75
             270.31,881.57 263.54,870.05 260.88,860.50
             257.34,847.87 257.89,833.20 257.62,826.38
             257.35,819.55 258.26,800.76 259.88,789.38
             261.58,777.33 260.76,766.92 260.88,759.00
             260.96,753.64 268.26,740.00 270.38,737.00
             272.50,734.00 277.96,716.03 279.75,710.75
             281.54,705.47 280.50,690.50 280.50,683.50
             280.50,676.50 276.21,659.82 275.00,657.25
             272.52,652.00 269.49,650.56 265.75,643.50
             262.01,636.44 260.12,622.55 258.50,611.50
             257.56,605.07 261.64,587.45 262.75,578.00
             263.86,568.55 264.45,560.95 256.91,548.91
             251.84,540.82 239.53,537.12 232.36,528.73
             219.54,513.70 170.73,532.55 144.00,499.09
             134.24,486.87 134.92,474.78 135.09,462.73
             135.25,451.83 137.80,448.44 138.36,441.27
             138.88,434.67 136.00,423.27 137.27,414.55
             138.55,405.82 133.79,388.45 139.27,377.82
             144.76,367.18 168.42,346.92 185.88,337.25
             192.59,333.53 201.00,330.90 208.91,330.00
             217.49,329.02 225.51,329.84 231.25,327.50
             241.19,323.45 242.53,315.59 254.91,313.09
             260.60,311.94 270.21,315.83 277.45,322.73
             282.14,327.18 283.39,333.58 290.18,338.36
             295.74,342.28 322.36,342.55 338.18,349.09
             354.00,355.64 347.00,352.87 356.55,359.45
             362.29,363.42 365.45,377.31 366.91,394.91
             367.87,406.54 371.27,417.40 370.00,432.00
             369.38,439.20 368.37,446.98 366.36,453.27
             362.99,463.85 358.26,472.15 358.33,480.67
             358.43,491.29 360.33,495.28 364.00,498.36
             367.67,501.45 398.00,506.58 412.00,508.00
             426.57,509.48 440.89,513.21 446.00,513.50
             456.03,514.07 482.75,505.00 487.00,503.75
             491.25,502.50 506.00,504.25 512.50,500.25
             519.00,496.25 529.01,488.09 535.75,481.75
             542.45,475.45 552.29,473.34 558.25,470.25
             567.13,465.65 579.97,464.35 591.25,460.25
             607.32,454.40 630.70,454.57 638.36,453.82
             646.02,453.07 657.45,470.36 665.09,461.64
             672.73,452.91 673.50,450.50 676.50,442.75
             679.50,435.00 686.53,431.81 689.75,430.50
             698.87,426.79 706.70,420.41 709.75,419.25
             735.34,409.48 754.82,405.92 757.50,404.25
             767.14,398.25 773.76,390.45 776.50,385.50
             780.51,378.27 783.87,369.91 785.75,367.00
             787.63,364.09 803.92,356.41 806.00,352.25
             808.08,348.09 815.75,342.10 819.00,336.00
             822.25,329.90 834.67,317.47 836.81,314.01
             838.95,310.55 846.60,304.58 850.00,302.34
             854.89,299.13 865.75,299.54 870.00,300.67
             874.25,301.80 878.05,304.00 881.00,304.39
             883.95,304.78 887.25,301.18 891.00,299.30
             893.38,298.10 896.65,297.62 898.69,296.00
             900.94,294.20 901.15,290.70 906.00,281.10
             910.85,271.50 911.60,267.00 912.39,263.00
             913.18,259.00 912.45,254.65 914.85,251.13
             916.90,248.13 919.52,247.82 921.90,246.17
             925.59,243.59 926.57,239.29 932.00,240.33
             934.48,240.80 946.07,246.15 951.00,248.35
             955.93,250.55 970.25,262.83 984.00,263.00
             990.60,263.08 1000.50,264.13 1006.00,260.35
             1008.61,258.55 1012.32,255.03 1013.40,252.00
             1015.92,244.92 1009.02,229.53 1002.98,226.42
             996.94,223.31 996.13,223.05 980.00,223.00
             963.87,222.95 961.16,215.20 954.20,203.00
             947.24,190.80 942.76,186.11 942.47,177.16
             942.18,168.21 944.06,161.30 945.63,157.00
             947.20,152.70 957.87,140.90 962.00,137.81
             966.13,134.73 985.85,127.26 989.00,126.53 Z" />
</svg>
