<?xml version="1.0" encoding="UTF-8" standalone="no"?>
<!DOCTYPE svg PUBLIC "-//W3C//DTD SVG 20010904//EN"
              "http://www.w3.org/TR/2001/REC-SVG-20010904/DTD/svg10.dtd">

<svg xmlns="http://www.w3.org/2000/svg"
     width="16in" height="19.5556in"
     viewBox="0 0 1440 1760">
  <path fill="none" stroke="deepskyblue" stroke-width="2.5"
        d="M 436.25,158.16
           C 440.19,157.25 456.62,157.44 468.75,157.50
             480.88,157.56 483.12,161.81 492.50,168.23
             501.88,174.64 528.44,193.81 530.90,195.28
             533.36,196.74 538.69,194.94 542.50,193.94
             547.81,192.56 552.21,191.93 557.50,193.94
             567.42,197.69 576.62,211.56 585.00,210.69
             593.38,209.81 597.44,205.91 603.75,203.30
             610.06,200.69 644.50,183.83 648.75,182.55
             653.00,181.27 657.19,180.81 662.50,179.99
             667.81,179.16 735.45,163.00 750.82,165.00
             766.18,167.00 792.62,180.94 798.75,182.49
             804.88,184.04 832.38,179.60 837.50,182.49
             842.62,185.38 857.50,198.30 861.25,201.78
             865.00,205.25 867.75,206.75 868.46,212.50
             869.18,218.25 861.38,243.25 863.91,252.50
             866.45,261.75 877.25,287.75 878.27,292.50
             879.30,297.25 879.50,306.25 880.21,312.50
             880.93,318.75 882.88,335.38 887.19,344.69
             891.50,354.00 904.00,359.70 910.69,365.91
             917.38,372.12 920.00,377.12 924.20,385.23
             928.40,393.33 931.50,397.06 937.50,402.69
             943.50,408.31 946.00,410.06 959.31,419.09
             972.62,428.11 1059.00,482.88 1070.00,490.93
             1081.00,498.98 1129.00,537.10 1147.50,552.61
             1166.00,568.12 1228.55,643.68 1244.27,663.75
             1260.00,683.82 1283.82,714.18 1288.75,721.25
             1293.68,728.32 1303.36,739.18 1309.96,758.75
             1316.56,778.32 1314.64,803.27 1313.75,815.00
             1312.86,826.73 1307.32,858.78 1304.11,883.75
             1300.91,908.73 1301.59,931.37 1301.25,936.25
             1300.91,941.13 1300.36,944.82 1300.05,948.75
             1299.74,952.69 1300.18,957.64 1300.05,961.25
             1299.92,964.87 1298.82,975.55 1298.70,980.00
             1298.58,984.46 1298.91,991.36 1298.70,997.50
             1298.49,1003.64 1298.00,1007.73 1297.50,1013.75
             1297.00,1019.78 1296.91,1027.73 1296.25,1035.00
             1295.59,1042.28 1293.91,1057.09 1293.75,1062.50
             1293.59,1067.91 1294.18,1069.55 1293.75,1073.75
             1293.32,1077.96 1291.73,1087.82 1291.36,1092.50
             1291.00,1097.19 1289.55,1127.82 1288.75,1136.25
             1287.95,1144.69 1286.38,1175.25 1285.44,1180.00
             1284.50,1184.76 1278.25,1190.56 1273.75,1194.89
             1269.25,1199.22 1248.44,1216.56 1245.00,1220.05
             1241.56,1223.54 1233.69,1231.07 1232.62,1238.75
             1231.56,1246.44 1244.03,1267.59 1248.23,1275.00
             1253.04,1283.53 1267.39,1308.64 1269.01,1315.00
             1270.64,1321.36 1271.13,1335.61 1271.25,1340.00
             1271.37,1344.40 1271.48,1376.26 1271.25,1381.25
             1271.02,1386.25 1270.38,1393.00 1270.11,1396.25
             1269.85,1399.51 1270.17,1416.61 1266.07,1423.70
             1261.98,1430.80 1246.45,1437.73 1238.75,1441.57
             1224.42,1448.70 1187.64,1464.10 1172.50,1466.87
             1157.36,1469.64 1124.44,1468.44 1115.00,1468.75
             1105.56,1469.07 1097.00,1466.24 1092.50,1464.90
             1088.00,1463.56 1084.69,1462.88 1081.64,1464.90
             1078.59,1466.93 1078.25,1470.38 1077.69,1475.00
             1077.12,1479.62 1066.00,1560.00 1057.85,1585.00
             1049.70,1610.01 1047.50,1617.75 1044.99,1623.75
             1042.47,1629.76 1026.09,1666.73 1018.88,1676.25
             1009.86,1688.15 997.62,1696.90 986.25,1706.35
             979.15,1712.25 963.89,1725.54 956.25,1728.90
             948.56,1732.30 944.12,1732.67 936.25,1734.14
             916.80,1737.78 912.91,1738.99 892.50,1738.75
             878.57,1738.59 860.91,1735.02 848.75,1728.10
             822.75,1713.33 806.68,1679.69 794.61,1653.75
             782.55,1627.82 767.27,1597.91 765.52,1593.75
             763.78,1589.60 739.50,1513.31 738.31,1508.75
             737.12,1504.19 726.94,1450.69 725.81,1443.75
             724.69,1436.82 717.64,1402.27 715.54,1390.00
             713.44,1377.73 712.84,1371.60 711.10,1363.75
             709.36,1355.91 707.75,1342.50 702.16,1338.73
             698.99,1336.59 694.32,1336.13 688.75,1336.20
             683.18,1336.27 671.82,1335.73 657.50,1335.00
             643.18,1334.28 578.00,1330.44 561.25,1328.39
             544.50,1326.34 530.52,1310.02 518.86,1297.50
             511.71,1289.84 493.55,1269.13 490.16,1260.00
             488.06,1254.35 487.51,1246.04 487.50,1240.00
             487.49,1230.69 488.56,1205.70 490.97,1197.50
             493.54,1188.80 499.29,1178.94 503.36,1171.25
             507.44,1163.56 550.12,1090.44 553.58,1085.00
             557.03,1079.57 563.14,1067.44 563.61,1058.75
             564.27,1047.01 554.38,1029.19 550.31,1021.25
             546.25,1013.31 539.44,999.44 534.61,990.00
             529.79,980.57 518.69,959.56 514.29,951.25
             509.89,942.94 505.60,921.88 505.11,912.50
             504.62,903.12 504.69,897.00 503.58,892.50
             502.46,888.00 498.00,876.38 492.94,862.50
             487.88,848.63 487.82,837.86 479.91,825.00
             473.50,814.58 457.12,803.18 450.00,801.34
             442.88,799.50 440.12,798.56 435.00,797.08
             429.88,795.59 426.08,789.55 420.00,789.04
             417.73,788.85 411.38,790.10 408.75,790.51
             396.41,792.44 392.38,792.15 385.00,794.89
             377.62,797.62 376.94,797.50 371.25,799.70
             365.56,801.90 353.27,799.99 347.50,802.41
             345.18,803.39 333.33,811.06 331.62,812.83
             329.09,815.44 328.55,818.14 325.88,820.09
             323.34,821.95 312.21,824.78 308.75,825.40
             303.23,826.39 295.89,824.08 290.00,823.23
             282.06,822.09 277.79,822.90 270.00,819.35
             257.31,813.58 244.30,798.50 240.61,785.00
             238.60,777.66 238.66,772.48 238.75,765.00
             238.92,750.94 249.44,728.31 256.01,718.75
             262.59,709.19 268.46,701.89 271.34,691.25
             273.45,683.45 270.65,664.69 268.64,660.00
             266.62,655.31 256.04,630.64 253.26,628.04
             248.62,623.69 244.66,626.48 239.34,621.79
             235.06,618.04 233.42,612.38 227.48,608.61
             220.62,604.29 216.57,608.68 211.36,606.74
             207.95,605.48 205.40,601.53 203.23,598.75
             198.59,592.86 188.56,583.25 188.60,577.50
             188.64,571.75 189.40,570.00 188.60,567.85
             185.61,562.11 173.70,564.55 169.45,560.51
             166.54,557.73 163.76,540.55 164.01,536.25
             165.03,518.38 181.24,516.61 188.04,502.50
             190.94,496.48 190.07,489.94 193.50,483.75
             198.51,474.71 206.55,469.78 208.90,466.14
             211.25,462.50 217.00,446.50 219.60,441.30
             222.20,436.10 227.75,432.63 231.81,425.00
             235.88,417.38 243.34,396.84 246.01,392.51
             248.69,388.19 258.25,380.73 262.50,377.93
             268.61,373.91 282.19,374.43 287.50,375.84
             292.81,377.25 297.56,380.00 301.25,380.49
             304.94,380.98 309.06,376.48 313.75,374.13
             316.73,372.63 320.81,372.03 323.36,370.00
             326.18,367.75 326.44,363.38 332.50,351.38
             338.56,339.38 339.50,333.75 340.49,328.75
             341.47,323.75 340.56,318.31 343.56,313.91
             346.12,310.16 349.40,309.78 352.38,307.71
             356.99,304.49 358.21,299.11 365.00,300.41
             368.10,301.00 382.59,307.69 388.75,310.44
             394.91,313.19 412.81,328.54 430.00,328.75
             438.25,328.85 450.62,330.16 457.50,325.44
             460.76,323.19 465.40,318.79 466.75,315.00
             469.90,306.15 461.27,286.91 453.72,283.03
             446.18,279.14 445.16,278.81 425.00,278.75
             404.84,278.69 401.45,269.00 392.75,253.75
             384.05,238.50 378.45,232.64 378.09,221.45
             377.73,210.26 380.08,201.63 382.04,196.25
             384.00,190.88 397.34,176.12 402.50,172.26
             407.66,168.41 432.31,159.08 436.25,158.16 Z" />
</svg>
