<?xml version="1.0" encoding="UTF-8" standalone="no"?>
<!DOCTYPE svg PUBLIC "-//W3C//DTD SVG 20010904//EN"
              "http://www.w3.org/TR/2001/REC-SVG-20010904/DTD/svg10.dtd">

<svg xmlns="http://www.w3.org/2000/svg"
     width="24.8889in" height="21.3333in"
     viewBox="0 0 1792 1536">
  <path id="Imported Path"
        fill="none" stroke="deepskyblue" stroke-width="2.5"
        d="M 989.00,254.53
           C 992.15,253.80 1005.30,253.95 1015.00,254.00
             1024.70,254.05 1026.50,257.45 1034.00,262.58
             1041.50,267.71 1062.75,283.05 1064.72,284.22
             1066.69,285.39 1070.95,283.95 1074.00,283.15
             1078.25,282.05 1081.77,281.54 1086.00,283.15
             1093.94,286.15 1101.30,297.25 1108.00,296.55
             1114.70,295.85 1117.95,292.73 1123.00,290.64
             1128.05,288.55 1155.60,275.06 1159.00,274.04
             1162.40,273.02 1165.75,272.65 1170.00,271.99
             1174.25,271.33 1228.36,258.40 1240.66,260.00
             1252.94,261.60 1274.10,272.75 1279.00,273.99
             1283.90,275.23 1305.90,271.68 1310.00,273.99
             1314.10,276.30 1326.00,286.64 1329.00,289.42
             1332.00,292.20 1334.20,293.40 1334.77,298.00
             1335.34,302.60 1329.10,322.60 1331.13,330.00
             1333.16,337.40 1341.80,358.20 1342.62,362.00
             1343.44,365.80 1343.60,373.00 1344.17,378.00
             1344.74,383.00 1346.30,396.30 1349.75,403.75
             1353.20,411.20 1363.20,415.76 1368.55,420.73
             1373.90,425.70 1376.00,429.70 1379.36,436.18
             1382.72,442.66 1385.20,445.65 1390.00,450.15
             1394.80,454.65 1396.80,456.05 1407.45,463.27
             1418.10,470.49 1487.20,514.30 1496.00,520.74
             1504.80,527.18 1543.20,557.68 1558.00,570.09
             1572.80,582.50 1622.84,642.95 1635.42,659.00
             1648.00,675.06 1667.06,699.35 1671.00,705.00
             1674.94,710.66 1682.69,719.35 1687.97,735.00
             1693.25,750.66 1691.71,770.62 1691.00,780.00
             1690.29,789.39 1685.86,815.03 1683.29,835.00
             1680.73,854.99 1681.27,873.10 1681.00,877.00
             1680.73,880.91 1680.29,883.86 1680.04,887.00
             1679.79,890.15 1680.14,894.11 1680.04,897.00
             1679.94,899.90 1679.06,908.44 1678.96,912.00
             1678.86,915.57 1679.13,921.09 1678.96,926.00
             1678.79,930.91 1678.40,934.19 1678.00,939.00
             1677.60,943.83 1677.53,950.19 1677.00,956.00
             1676.47,961.83 1675.13,973.67 1675.00,978.00
             1674.87,982.33 1675.34,983.64 1675.00,987.00
             1674.66,990.37 1673.38,998.26 1673.09,1002.00
             1672.80,1005.75 1671.64,1030.26 1671.00,1037.00
             1670.36,1043.75 1669.10,1068.20 1668.35,1072.00
             1667.60,1075.81 1662.60,1080.45 1659.00,1083.91
             1655.40,1087.38 1638.75,1101.25 1636.00,1104.04
             1633.25,1106.83 1626.95,1112.86 1626.10,1119.00
             1625.25,1125.15 1635.22,1142.07 1638.58,1148.00
             1642.43,1154.83 1653.91,1174.91 1655.21,1180.00
             1656.51,1185.09 1656.90,1196.49 1657.00,1200.00
             1657.10,1203.52 1657.18,1229.01 1657.00,1233.00
             1656.82,1237.00 1656.30,1242.40 1656.09,1245.00
             1655.88,1247.61 1656.14,1261.29 1652.86,1266.96
             1649.58,1272.64 1637.16,1278.19 1631.00,1281.26
             1619.54,1286.96 1590.11,1299.28 1578.00,1301.50
             1565.89,1303.71 1539.55,1302.75 1532.00,1303.00
             1524.45,1303.26 1517.60,1300.99 1514.00,1299.92
             1510.40,1298.85 1507.75,1298.31 1505.31,1299.92
             1502.87,1301.55 1502.60,1304.31 1502.15,1308.00
             1501.70,1311.70 1492.80,1376.00 1486.28,1396.00
             1479.76,1416.01 1478.00,1422.20 1475.99,1427.00
             1473.98,1431.81 1460.87,1461.39 1455.10,1469.00
             1447.89,1478.52 1438.10,1485.52 1429.00,1493.08
             1423.32,1497.80 1411.11,1508.44 1405.00,1511.12
             1398.85,1513.84 1395.30,1514.14 1389.00,1515.32
             1373.44,1518.23 1370.33,1519.20 1354.00,1519.00
             1342.86,1518.88 1328.73,1516.02 1319.00,1510.48
             1298.20,1498.67 1285.34,1471.76 1275.69,1451.00
             1266.04,1430.26 1253.82,1406.33 1252.42,1403.00
             1251.02,1399.68 1231.60,1338.65 1230.65,1335.00
             1229.70,1331.35 1221.55,1288.55 1220.65,1283.00
             1219.75,1277.46 1214.11,1249.82 1212.43,1240.00
             1210.75,1230.19 1210.27,1225.28 1208.88,1219.00
             1207.49,1212.73 1206.20,1202.00 1201.73,1198.99
             1199.19,1197.27 1195.46,1196.91 1191.00,1196.96
             1186.54,1197.02 1177.46,1196.59 1166.00,1196.00
             1154.54,1195.43 1102.40,1192.35 1089.00,1190.71
             1075.60,1189.07 1064.42,1176.02 1055.09,1166.00
             1049.37,1159.87 1034.84,1143.31 1032.13,1136.00
             1030.45,1131.48 1030.01,1124.83 1030.00,1120.00
             1029.99,1112.55 1030.85,1092.56 1032.78,1086.00
             1034.83,1079.04 1039.43,1071.15 1042.69,1065.00
             1045.95,1058.85 1080.10,1000.35 1082.86,996.00
             1085.62,991.66 1090.51,981.95 1090.89,975.00
             1091.42,965.61 1083.50,951.35 1080.25,945.00
             1077.00,938.65 1071.55,927.55 1067.69,920.00
             1063.83,912.46 1054.95,895.65 1051.43,889.00
             1047.91,882.35 1044.48,865.51 1044.09,858.00
             1043.70,850.50 1043.75,845.60 1042.86,842.00
             1041.97,838.40 1038.40,829.11 1034.35,818.00
             1030.30,806.91 1030.26,798.29 1023.93,788.00
             1018.80,779.67 988.69,774.95 980.50,776.50
             973.74,777.78 966.55,777.06 960.25,779.25
             952.45,781.96 944.64,785.54 933.75,788.25
             925.15,790.39 913.65,787.04 903.75,788.50
             893.11,790.07 884.77,798.81 874.75,804.50
             866.16,809.37 853.25,812.75 848.25,816.75
             843.25,820.75 843.13,825.31 835.00,835.50
             827.01,845.51 825.25,850.92 814.00,862.67
             809.26,867.62 798.22,880.76 792.00,884.00
             783.47,888.45 772.88,888.55 767.00,897.00
             753.69,916.12 753.60,951.03 742.25,959.75
             723.07,974.49 683.04,960.90 643.50,948.00
             632.34,944.36 610.50,926.38 603.33,924.33
             596.17,922.29 570.37,924.62 564.88,927.50
             559.38,930.38 555.65,942.20 550.75,948.88
             544.48,957.38 537.15,964.40 533.25,971.25
             528.53,979.53 527.68,987.57 525.00,997.67
             518.41,1022.49 519.11,1048.10 507.00,1061.67
             501.31,1068.04 481.50,1075.12 477.38,1078.75
             473.25,1082.38 471.68,1091.14 462.33,1093.33
             454.93,1095.07 442.49,1092.45 438.36,1091.45
             434.24,1090.45 418.23,1081.58 414.82,1079.18
             411.78,1077.05 402.12,1069.89 400.00,1066.64
             397.88,1063.39 389.96,1053.10 388.88,1050.62
             386.62,1045.50 381.88,1032.38 376.33,1028.33
             370.79,1024.29 356.02,1020.89 342.67,1022.33
             331.30,1023.56 317.98,1028.14 307.67,1027.00
             291.37,1025.21 279.89,1018.94 276.62,1015.75
             270.31,1009.57 263.54,998.05 260.88,988.50
             257.34,975.87 257.89,961.20 257.62,954.38
             257.35,947.55 258.26,928.76 259.88,917.38
             261.58,905.33 260.76,894.92 260.88,887.00
             260.96,881.64 268.26,868.00 270.38,865.00
             272.50,862.00 277.96,844.03 279.75,838.75
             281.54,833.47 280.50,818.50 280.50,811.50
             280.50,804.50 276.21,787.82 275.00,785.25
             272.52,780.00 269.49,778.56 265.75,771.50
             262.01,764.44 260.12,750.55 258.50,739.50
             257.56,733.07 261.64,715.45 262.75,706.00
             263.86,696.55 264.45,688.95 256.91,676.91
             251.84,668.82 239.53,665.12 232.36,656.73
             219.54,641.70 170.73,660.55 144.00,627.09
             134.24,614.87 134.92,602.78 135.09,590.73
             135.25,579.83 137.80,576.44 138.36,569.27
             138.88,562.67 136.00,551.27 137.27,542.55
             138.55,533.82 133.79,516.45 139.27,505.82
             144.76,495.18 168.42,474.92 185.88,465.25
             192.59,461.53 201.00,458.90 208.91,458.00
             217.49,457.02 225.51,457.84 231.25,455.50
             241.19,451.45 242.53,443.59 254.91,441.09
             260.60,439.94 269.09,441.45 278.55,438.55
             283.15,437.13 297.00,435.00 304.75,428.50
             312.50,422.00 320.13,412.63 325.00,402.25
             334.50,382.00 333.05,360.25 332.75,333.75
             332.45,307.25 348.00,282.69 344.25,259.25
             339.80,231.48 320.73,223.27 316.36,187.09
             312.00,150.91 320.36,128.36 334.18,120.18
             348.00,112.00 358.33,111.71 366.00,106.55
             372.27,102.33 381.06,95.09 390.25,90.00
             399.44,84.91 411.96,85.50 424.73,85.09
             437.49,84.68 447.74,85.34 457.82,85.09
             468.22,84.84 477.14,82.59 483.27,82.00
             502.18,80.18 505.07,87.58 519.82,87.09
             532.18,86.68 549.19,85.69 561.25,89.00
             572.79,92.17 577.80,102.06 587.00,108.75
             598.16,116.86 613.50,115.25 616.00,128.00
             617.45,135.42 614.50,143.88 613.12,149.88
             611.75,155.88 611.12,163.12 612.12,170.38
             613.12,177.62 615.07,185.62 618.25,190.75
             622.46,197.54 627.91,200.77 626.91,221.27
             626.07,238.66 616.67,282.00 608.00,305.00
             599.33,328.00 575.80,368.67 568.00,377.33
             559.11,387.21 532.94,407.14 501.33,422.33
             479.33,432.91 454.09,438.36 436.75,446.50
             394.50,466.33 380.25,473.50 373.25,484.50
             366.25,495.50 365.45,505.31 366.91,522.91
             367.87,534.54 371.27,545.40 370.00,560.00
             369.38,567.20 368.37,574.98 366.36,581.27
             362.99,591.85 358.26,600.15 358.33,608.67
             358.43,619.29 360.33,623.28 364.00,626.36
             367.67,629.45 398.00,634.58 412.00,636.00
             426.57,637.48 440.89,641.21 446.00,641.50
             456.03,642.07 482.75,633.00 487.00,631.75
             491.25,630.50 506.00,632.25 512.50,628.25
             519.00,624.25 529.01,616.09 535.75,609.75
             542.45,603.45 552.29,601.34 558.25,598.25
             567.13,593.65 579.97,592.35 591.25,588.25
             607.32,582.40 630.70,582.57 638.36,581.82
             646.02,581.07 657.45,598.36 665.09,589.64
             672.73,580.91 673.50,578.50 676.50,570.75
             679.50,563.00 686.53,559.81 689.75,558.50
             698.87,554.79 706.70,548.41 709.75,547.25
             735.34,537.48 754.82,533.92 757.50,532.25
             767.14,526.25 773.76,518.45 776.50,513.50
             780.51,506.27 783.87,497.91 785.75,495.00
             787.63,492.09 803.92,484.41 806.00,480.25
             808.08,476.09 815.75,470.10 819.00,464.00
             822.25,457.90 834.67,445.47 836.81,442.01
             838.95,438.55 846.60,432.58 850.00,430.34
             854.89,427.13 865.75,427.54 870.00,428.67
             874.25,429.80 878.05,432.00 881.00,432.39
             883.95,432.78 887.25,429.18 891.00,427.30
             893.38,426.10 896.65,425.62 898.69,424.00
             900.94,422.20 901.15,418.70 906.00,409.10
             910.85,399.50 911.60,395.00 912.39,391.00
             913.18,387.00 912.45,382.65 914.85,379.13
             916.90,376.13 919.52,375.82 921.90,374.17
             925.59,371.59 926.57,367.29 932.00,368.33
             934.48,368.80 946.07,374.15 951.00,376.35
             955.93,378.55 970.25,390.83 984.00,391.00
             990.60,391.08 1000.50,392.13 1006.00,388.35
             1008.61,386.55 1012.32,383.03 1013.40,380.00
             1015.92,372.92 1009.02,357.53 1002.98,354.42
             996.94,351.31 996.13,351.05 980.00,351.00
             963.87,350.95 961.16,343.20 954.20,331.00
             947.24,318.80 942.76,314.11 942.47,305.16
             942.18,296.21 944.06,289.30 945.63,285.00
             947.20,280.70 957.87,268.90 962.00,265.81
             966.13,262.73 985.85,255.26 989.00,254.53 Z" />
</svg>
