<?xml version="1.0" encoding="UTF-8" standalone="no"?>
<!DOCTYPE svg PUBLIC "-//W3C//DTD SVG 20010904//EN"
              "http://www.w3.org/TR/2001/REC-SVG-20010904/DTD/svg10.dtd">

<svg xmlns="http://www.w3.org/2000/svg"
     width="16in" height="19.5556in"
     viewBox="0 0 1152 1408">
  <path id="Imported Path"
        fill="none" stroke="deepskyblue" stroke-width="2.5"
        d="M 349.00,126.53
           C 352.15,125.80 365.30,125.95 375.00,126.00
             384.70,126.05 386.50,129.45 394.00,134.58
             401.50,139.71 422.75,155.05 424.72,156.22
             426.69,157.39 430.95,155.95 434.00,155.15
             438.25,154.05 441.77,153.54 446.00,155.15
             453.94,158.15 461.30,169.25 468.00,168.55
             474.70,167.85 477.95,164.73 483.00,162.64
             488.05,160.55 515.60,147.06 519.00,146.04
             522.40,145.02 525.75,144.65 530.00,143.99
             534.25,143.33 588.36,130.40 600.66,132.00
             612.94,133.60 634.10,144.75 639.00,145.99
             643.90,147.23 665.90,143.68 670.00,145.99
             674.10,148.30 686.00,158.64 689.00,161.42
             692.00,164.20 694.20,165.40 694.77,170.00
             695.34,174.60 689.10,194.60 691.13,202.00
             693.16,209.40 701.80,230.20 702.62,234.00
             703.44,237.80 703.60,245.00 704.17,250.00
             704.74,255.00 706.30,268.30 709.75,275.75
             713.20,283.20 723.20,287.76 728.55,292.73
             733.90,297.70 736.00,301.70 739.36,308.18
             742.72,314.66 745.20,317.65 750.00,322.15
             754.80,326.65 756.80,328.05 767.45,335.27
             778.10,342.49 847.20,386.30 856.00,392.74
             864.80,399.18 903.20,429.68 918.00,442.09
             932.80,454.50 982.84,514.95 995.42,531.00
             1008.00,547.06 1027.06,571.35 1031.00,577.00
             1034.94,582.66 1042.69,591.35 1047.97,607.00
             1053.25,622.66 1051.71,642.62 1051.00,652.00
             1050.29,661.39 1045.86,687.03 1043.29,707.00
             1040.73,726.99 1041.27,745.10 1041.00,749.00
             1040.73,752.91 1040.29,755.86 1040.04,759.00
             1039.79,762.15 1040.14,766.11 1040.04,769.00
             1039.94,771.90 1039.06,780.44 1038.96,784.00
             1038.86,787.57 1039.13,793.09 1038.96,798.00
             1038.79,802.91 1038.40,806.19 1038.00,811.00
             1037.60,815.83 1037.53,822.19 1037.00,828.00
             1036.47,833.83 1035.13,845.67 1035.00,850.00
             1034.87,854.33 1035.34,855.64 1035.00,859.00
             1034.66,862.37 1033.38,870.26 1033.09,874.00
             1032.80,877.75 1031.64,902.26 1031.00,909.00
             1030.36,915.75 1029.10,940.20 1028.35,944.00
             1027.60,947.81 1022.60,952.45 1019.00,955.91
             1015.40,959.38 998.75,973.25 996.00,976.04
             993.25,978.83 986.95,984.86 986.10,991.00
             985.25,997.15 995.22,1014.07 998.58,1020.00
             1002.43,1026.83 1013.91,1046.91 1015.21,1052.00
             1016.51,1057.09 1016.90,1068.49 1017.00,1072.00
             1017.10,1075.52 1017.18,1101.01 1017.00,1105.00
             1016.82,1109.00 1016.30,1114.40 1016.09,1117.00
             1015.88,1119.61 1016.14,1133.29 1012.86,1138.96
             1009.58,1144.64 997.16,1150.19 991.00,1153.26
             979.54,1158.96 950.11,1171.28 938.00,1173.50
             925.89,1175.71 899.55,1174.75 892.00,1175.00
             884.45,1175.26 877.60,1172.99 874.00,1171.92
             870.40,1170.85 867.75,1170.31 865.31,1171.92
             862.87,1173.55 862.60,1176.31 862.15,1180.00
             861.70,1183.70 852.80,1248.00 846.28,1268.00
             839.76,1288.01 838.00,1294.20 835.99,1299.00
             833.98,1303.81 820.87,1333.39 815.10,1341.00
             807.89,1350.52 798.10,1357.52 789.00,1365.08
             783.32,1369.80 771.11,1380.44 765.00,1383.12
             758.85,1385.84 755.30,1386.14 749.00,1387.32
             733.44,1390.23 730.33,1391.20 714.00,1391.00
             702.86,1390.88 688.73,1388.02 679.00,1382.48
             658.20,1370.67 645.34,1343.76 635.69,1323.00
             626.04,1302.26 613.82,1278.33 612.42,1275.00
             611.02,1271.68 591.60,1210.65 590.65,1207.00
             589.70,1203.35 581.55,1160.55 580.65,1155.00
             579.75,1149.46 574.11,1121.82 572.43,1112.00
             570.75,1102.19 570.27,1097.28 568.88,1091.00
             567.49,1084.73 566.20,1074.00 561.73,1070.99
             559.19,1069.27 555.46,1068.91 551.00,1068.96
             546.54,1069.02 537.46,1068.59 526.00,1068.00
             514.54,1067.43 462.40,1064.35 449.00,1062.71
             435.60,1061.07 424.42,1048.02 415.09,1038.00
             409.37,1031.87 394.84,1015.31 392.13,1008.00
             390.45,1003.48 390.01,996.83 390.00,992.00
             389.99,984.55 390.85,964.56 392.78,958.00
             394.83,951.04 399.43,943.15 402.69,937.00
             405.95,930.85 440.10,872.35 442.86,868.00
             445.62,863.66 450.51,853.95 450.89,847.00
             451.42,837.61 443.50,823.35 440.25,817.00
             437.00,810.65 431.55,799.55 427.69,792.00
             423.83,784.46 414.95,767.65 411.43,761.00
             407.91,754.35 404.48,737.51 404.09,730.00
             403.70,722.50 403.75,717.60 402.86,714.00
             401.97,710.40 398.40,701.11 394.35,690.00
             390.30,678.91 390.26,670.29 383.93,660.00
             378.80,651.67 365.70,642.55 360.00,641.07
             354.30,639.60 352.10,638.85 348.00,637.67
             343.90,636.47 340.86,631.64 336.00,631.23
             334.18,631.08 329.10,632.08 327.00,632.41
             317.13,633.95 313.90,633.72 308.00,635.91
             302.10,638.10 301.55,638.00 297.00,639.76
             292.45,641.52 282.62,639.99 278.00,641.93
             276.14,642.71 266.66,648.85 265.30,650.27
             263.27,652.35 262.84,654.51 260.70,656.07
             258.67,657.56 249.77,659.83 247.00,660.32
             242.58,661.11 236.71,659.27 232.00,658.59
             225.65,657.67 219.67,658.00 210.33,659.67
             205.54,660.52 197.37,665.03 188.00,667.33
             179.11,669.52 169.15,669.51 159.64,670.00
             149.19,670.44 135.08,663.50 124.75,657.25
             114.51,651.05 108.02,645.59 102.33,634.00
             95.27,621.70 95.01,610.38 94.50,599.00
             94.04,588.63 92.93,578.07 95.00,569.33
             97.13,560.34 101.73,548.37 107.25,541.25
             112.98,533.86 122.04,530.75 128.67,526.33
             141.67,517.67 152.73,513.27 158.67,508.33
             164.61,503.39 167.27,498.00 167.00,491.33
             166.73,484.67 164.32,481.23 162.58,479.00
             158.87,474.29 150.85,466.60 150.88,462.00
             150.91,457.40 151.52,456.00 150.88,454.28
             148.49,449.69 138.96,451.64 135.56,448.41
             133.23,446.19 131.01,432.44 131.21,429.00
             132.02,414.70 144.99,413.29 150.43,402.00
             152.75,397.18 152.06,391.95 154.80,387.00
             158.81,379.77 165.24,375.82 167.12,372.91
             169.00,370.00 173.60,357.20 175.68,353.04
             177.76,348.88 182.20,346.10 185.45,340.00
             188.70,333.90 194.67,317.47 196.81,314.01
             198.95,310.55 206.60,304.58 210.00,302.34
             214.89,299.13 225.75,299.54 230.00,300.67
             234.25,301.80 238.05,304.00 241.00,304.39
             243.95,304.78 247.25,301.18 251.00,299.30
             253.38,298.10 256.65,297.62 258.69,296.00
             260.94,294.20 261.15,290.70 266.00,281.10
             270.85,271.50 271.60,267.00 272.39,263.00
             273.18,259.00 272.45,254.65 274.85,251.13
             276.90,248.13 279.52,247.82 281.90,246.17
             285.59,243.59 286.57,239.29 292.00,240.33
             294.48,240.80 306.07,246.15 311.00,248.35
             315.93,250.55 330.25,262.83 344.00,263.00
             350.60,263.08 360.50,264.13 366.00,260.35
             368.61,258.55 372.32,255.03 373.40,252.00
             375.92,244.92 369.02,229.53 362.98,226.42
             356.94,223.31 356.13,223.05 340.00,223.00
             323.87,222.95 321.16,215.20 314.20,203.00
             307.24,190.80 302.76,186.11 302.47,177.16
             302.18,168.21 304.06,161.30 305.63,157.00
             307.20,152.70 317.87,140.90 322.00,137.81
             326.13,134.73 345.85,127.26 349.00,126.53 Z" />
</svg>
