<?xml version="1.0" encoding="UTF-8" standalone="no"?>
<!DOCTYPE svg PUBLIC "-//W3C//DTD SVG 20010904//EN"
              "http://www.w3.org/TR/2001/REC-SVG-20010904/DTD/svg10.dtd">

<svg xmlns="http://www.w3.org/2000/svg"
     width="23.1111in" height="19.5556in"
     viewBox="0 0 1664 1408">
  <path id="Imported Path"
        fill="none" stroke="deepskyblue" stroke-width="2.5"
        d="M 861.00,126.53
           C 864.15,125.80 877.30,125.95 887.00,126.00
             896.70,126.05 898.50,129.45 906.00,134.58
             913.50,139.71 934.75,155.05 936.72,156.22
             938.69,157.39 942.95,155.95 946.00,155.15
             950.25,154.05 953.77,153.54 958.00,155.15
             965.94,158.15 973.30,169.25 980.00,168.55
             986.70,167.85 989.95,164.73 995.00,162.64
             1000.05,160.55 1027.60,147.06 1031.00,146.04
             1034.40,145.02 1037.75,144.65 1042.00,143.99
             1046.25,143.33 1100.36,130.40 1112.66,132.00
             1124.94,133.60 1146.10,144.75 1151.00,145.99
             1155.90,147.23 1177.90,143.68 1182.00,145.99
             1186.10,148.30 1198.00,158.64 1201.00,161.42
             1204.00,164.20 1206.20,165.40 1206.77,170.00
             1207.34,174.60 1201.10,194.60 1203.13,202.00
             1205.16,209.40 1213.80,230.20 1214.62,234.00
             1215.44,237.80 1215.60,245.00 1216.17,250.00
             1216.74,255.00 1218.30,268.30 1221.75,275.75
             1225.20,283.20 1235.20,287.76 1240.55,292.73
             1245.90,297.70 1248.00,301.70 1251.36,308.18
             1254.72,314.66 1257.20,317.65 1262.00,322.15
             1266.80,326.65 1268.80,328.05 1279.45,335.27
             1290.10,342.49 1359.20,386.30 1368.00,392.74
             1376.80,399.18 1415.20,429.68 1430.00,442.09
             1444.80,454.50 1494.84,514.95 1507.42,531.00
             1520.00,547.06 1539.06,571.35 1543.00,577.00
             1546.94,582.66 1554.69,591.35 1559.97,607.00
             1565.25,622.66 1563.71,642.62 1563.00,652.00
             1562.29,661.39 1557.86,687.03 1555.29,707.00
             1552.73,726.99 1553.27,745.10 1553.00,749.00
             1552.73,752.91 1552.29,755.86 1552.04,759.00
             1551.79,762.15 1552.14,766.11 1552.04,769.00
             1551.94,771.90 1551.06,780.44 1550.96,784.00
             1550.86,787.57 1551.13,793.09 1550.96,798.00
             1550.79,802.91 1550.40,806.19 1550.00,811.00
             1549.60,815.83 1549.53,822.19 1549.00,828.00
             1548.47,833.83 1547.13,845.67 1547.00,850.00
             1546.87,854.33 1547.34,855.64 1547.00,859.00
             1546.66,862.37 1545.38,870.26 1545.09,874.00
             1544.80,877.75 1543.64,902.26 1543.00,909.00
             1542.36,915.75 1541.10,940.20 1540.35,944.00
             1539.60,947.81 1534.60,952.45 1531.00,955.91
             1527.40,959.38 1510.75,973.25 1508.00,976.04
             1505.25,978.83 1498.95,984.86 1498.10,991.00
             1497.25,997.15 1507.22,1014.07 1510.58,1020.00
             1514.43,1026.83 1525.91,1046.91 1527.21,1052.00
             1528.51,1057.09 1528.90,1068.49 1529.00,1072.00
             1529.10,1075.52 1529.18,1101.01 1529.00,1105.00
             1528.82,1109.00 1528.30,1114.40 1528.09,1117.00
             1527.88,1119.61 1528.14,1133.29 1524.86,1138.96
             1521.58,1144.64 1509.16,1150.19 1503.00,1153.26
             1491.54,1158.96 1462.11,1171.28 1450.00,1173.50
             1437.89,1175.71 1411.55,1174.75 1404.00,1175.00
             1396.45,1175.26 1389.60,1172.99 1386.00,1171.92
             1382.40,1170.85 1379.75,1170.31 1377.31,1171.92
             1374.87,1173.55 1374.60,1176.31 1374.15,1180.00
             1373.70,1183.70 1364.80,1248.00 1358.28,1268.00
             1351.76,1288.01 1350.00,1294.20 1347.99,1299.00
             1345.98,1303.81 1332.87,1333.39 1327.10,1341.00
             1319.89,1350.52 1310.10,1357.52 1301.00,1365.08
             1295.32,1369.80 1283.11,1380.44 1277.00,1383.12
             1270.85,1385.84 1267.30,1386.14 1261.00,1387.32
             1245.44,1390.23 1242.33,1391.20 1226.00,1391.00
             1214.86,1390.88 1200.73,1388.02 1191.00,1382.48
             1170.20,1370.67 1157.34,1343.76 1147.69,1323.00
             1138.04,1302.26 1125.82,1278.33 1124.42,1275.00
             1123.02,1271.68 1103.60,1210.65 1102.65,1207.00
             1101.70,1203.35 1093.55,1160.55 1092.65,1155.00
             1091.75,1149.46 1086.11,1121.82 1084.43,1112.00
             1082.75,1102.19 1082.27,1097.28 1080.88,1091.00
             1079.49,1084.73 1078.20,1074.00 1073.73,1070.99
             1071.19,1069.27 1067.46,1068.91 1063.00,1068.96
             1058.54,1069.02 1049.46,1068.59 1038.00,1068.00
             1026.54,1067.43 974.40,1064.35 961.00,1062.71
             947.60,1061.07 936.42,1048.02 927.09,1038.00
             921.37,1031.87 906.84,1015.31 904.13,1008.00
             902.45,1003.48 902.01,996.83 902.00,992.00
             901.99,984.55 902.85,964.56 904.78,958.00
             906.83,951.04 911.43,943.15 914.69,937.00
             917.95,930.85 952.10,872.35 954.86,868.00
             957.62,863.66 962.51,853.95 962.89,847.00
             963.42,837.61 955.50,823.35 952.25,817.00
             949.00,810.65 943.55,799.55 939.69,792.00
             935.83,784.46 926.95,767.65 923.43,761.00
             919.91,754.35 916.48,737.51 916.09,730.00
             915.70,722.50 915.75,717.60 914.86,714.00
             913.97,710.40 910.40,701.11 906.35,690.00
             902.30,678.91 902.26,670.29 895.93,660.00
             890.80,651.67 860.69,646.95 852.50,648.50
             845.74,649.78 838.55,649.06 832.25,651.25
             824.45,653.96 816.64,657.54 805.75,660.25
             797.15,662.39 785.65,659.04 775.75,660.50
             765.11,662.07 756.77,670.81 746.75,676.50
             738.16,681.37 725.25,684.75 720.25,688.75
             715.25,692.75 715.13,697.31 707.00,707.50
             699.01,717.51 697.25,722.92 686.00,734.67
             681.26,739.62 670.22,752.76 664.00,756.00
             655.47,760.45 644.88,760.55 639.00,769.00
             625.69,788.12 625.60,823.03 614.25,831.75
             595.07,846.49 555.04,832.90 515.50,820.00
             504.34,816.36 482.50,798.38 475.33,796.33
             468.17,794.29 442.37,796.62 436.88,799.50
             431.38,802.38 427.65,814.20 422.75,820.88
             416.48,829.38 409.15,836.40 405.25,843.25
             400.53,851.53 399.68,859.57 397.00,869.67
             390.41,894.49 391.11,920.10 379.00,933.67
             373.31,940.04 353.50,947.12 349.38,950.75
             345.25,954.38 343.68,963.14 334.33,965.33
             326.93,967.07 314.49,964.45 310.36,963.45
             306.24,962.45 290.23,953.58 286.82,951.18
             283.78,949.05 274.12,941.89 272.00,938.64
             269.88,935.39 261.96,925.10 260.88,922.62
             258.62,917.50 253.88,904.38 248.33,900.33
             242.79,896.29 228.02,892.89 214.67,894.33
             203.30,895.56 189.98,900.14 179.67,899.00
             163.37,897.21 151.89,890.94 148.62,887.75
             142.31,881.57 135.54,870.05 132.88,860.50
             129.34,847.87 129.89,833.20 129.62,826.38
             129.35,819.55 130.26,800.76 131.88,789.38
             133.58,777.33 132.76,766.92 132.88,759.00
             132.96,753.64 140.51,739.37 142.38,737.00
             143.41,735.70 150.35,725.22 161.50,722.12
             165.86,720.91 181.16,717.31 195.62,718.75
             211.65,720.35 227.18,721.23 231.25,719.88
             242.07,716.26 253.83,712.85 267.00,702.25
             274.77,696.00 278.27,687.85 285.75,682.12
             293.40,676.28 299.82,668.98 304.50,666.00
             311.80,661.36 325.38,659.88 329.88,659.38
             334.38,658.88 352.41,656.89 356.00,654.67
             370.00,646.00 365.38,630.84 365.25,629.00
             364.90,623.84 362.51,615.20 364.75,608.25
             367.39,600.06 371.29,593.60 371.75,588.75
             373.46,570.80 376.50,569.75 380.50,559.00
             384.50,548.25 376.75,537.50 378.50,527.25
             379.21,523.11 384.19,514.40 390.75,504.25
             395.60,496.75 401.01,488.09 407.75,481.75
             414.45,475.45 424.29,473.34 430.25,470.25
             439.13,465.65 451.97,464.35 463.25,460.25
             479.32,454.40 502.70,454.57 510.36,453.82
             518.02,453.07 529.45,470.36 537.09,461.64
             544.73,452.91 545.50,450.50 548.50,442.75
             551.50,435.00 558.53,431.81 561.75,430.50
             570.87,426.79 578.70,420.41 581.75,419.25
             607.34,409.48 626.82,405.92 629.50,404.25
             639.14,398.25 645.76,390.45 648.50,385.50
             652.51,378.27 655.87,369.91 657.75,367.00
             659.63,364.09 675.92,356.41 678.00,352.25
             680.08,348.09 687.75,342.10 691.00,336.00
             694.25,329.90 706.67,317.47 708.81,314.01
             710.95,310.55 718.60,304.58 722.00,302.34
             726.89,299.13 737.75,299.54 742.00,300.67
             746.25,301.80 750.05,304.00 753.00,304.39
             755.95,304.78 759.25,301.18 763.00,299.30
             765.38,298.10 768.65,297.62 770.69,296.00
             772.94,294.20 773.15,290.70 778.00,281.10
             782.85,271.50 783.60,267.00 784.39,263.00
             785.18,259.00 784.45,254.65 786.85,251.13
             788.90,248.13 791.52,247.82 793.90,246.17
             797.59,243.59 798.57,239.29 804.00,240.33
             806.48,240.80 818.07,246.15 823.00,248.35
             827.93,250.55 842.25,262.83 856.00,263.00
             862.60,263.08 872.50,264.13 878.00,260.35
             880.61,258.55 884.32,255.03 885.40,252.00
             887.92,244.92 881.02,229.53 874.98,226.42
             868.94,223.31 868.13,223.05 852.00,223.00
             835.87,222.95 833.16,215.20 826.20,203.00
             819.24,190.80 814.76,186.11 814.47,177.16
             814.18,168.21 816.06,161.30 817.63,157.00
             819.20,152.70 829.87,140.90 834.00,137.81
             838.13,134.73 857.85,127.26 861.00,126.53 Z" />
</svg>
