<?xml version="1.0" encoding="UTF-8" standalone="no"?>
<!DOCTYPE svg PUBLIC "-//W3C//DTD SVG 20010904//EN"
              "http://www.w3.org/TR/2001/REC-SVG-20010904/DTD/svg10.dtd">

<svg xmlns="http://www.w3.org/2000/svg"
     width="42.6667in" height="42.6667in"
     viewBox="0 0 3072 3072">
  <path id="Selection"
        fill="none" stroke="deepskyblue" stroke-width="12"
        d="M 1672.50,779.21
           C 1692.32,777.51 1723.77,778.18 1741.50,780.00
             1759.23,781.82 1766.43,783.53 1780.50,792.00
             1791.33,798.53 1805.64,811.82 1814.98,825.00
             1824.32,838.18 1831.23,849.82 1836.27,861.00
             1841.31,872.18 1844.50,882.18 1848.78,896.00
             1853.06,909.82 1862.56,949.45 1866.53,961.00
             1870.50,972.55 1878.32,987.45 1884.94,998.00
             1891.55,1008.55 1913.81,1038.91 1920.16,1048.00
             1926.50,1057.09 1939.17,1076.82 1946.50,1082.47
             1952.04,1086.74 1965.48,1091.15 1972.50,1094.30
             1988.91,1101.68 2005.22,1111.17 2017.07,1125.00
             2035.04,1145.99 2043.59,1172.18 2046.77,1195.00
             2049.95,1217.82 2052.86,1226.91 2058.50,1236.91
             2064.14,1246.91 2067.52,1250.18 2077.19,1270.00
             2086.86,1289.82 2093.60,1313.90 2096.89,1332.00
             2096.89,1332.00 2103.00,1361.50 2103.50,1381.50
             2104.00,1401.50 2105.14,1418.87 2094.18,1442.00
             2083.17,1465.24 2067.87,1475.11 2048.50,1489.88
             2034.43,1500.61 2025.87,1508.93 2009.50,1517.52
             1998.25,1523.41 1981.82,1528.65 1969.50,1532.14
             1953.98,1536.54 1926.83,1539.00 1911.20,1540.74
             1895.56,1542.48 1883.76,1543.75 1887.38,1568.00
             1891.00,1592.25 1897.33,1640.00 1895.54,1672.00
             1893.75,1704.00 1890.00,1736.88 1880.76,1764.00
             1871.51,1791.12 1867.67,1796.50 1864.83,1806.00
             1862.00,1815.50 1861.25,1827.25 1869.50,1836.00
             1877.75,1844.75 1883.10,1851.07 1888.64,1861.00
             1903.29,1887.25 1905.26,1918.00 1900.63,1953.00
             1896.00,1988.00 1883.74,2019.48 1864.83,2048.00
             1853.82,2064.60 1840.04,2079.78 1821.50,2088.14
             1801.03,2097.36 1783.25,2097.25 1768.50,2098.00
             1753.75,2098.75 1747.50,2099.62 1736.50,2100.00
             1725.50,2100.37 1711.50,2100.00 1711.50,2100.00
             1697.78,2100.02 1688.30,2104.99 1675.50,2106.71
             1645.10,2110.81 1619.90,2104.52 1595.50,2085.58
             1595.50,2085.58 1577.50,2069.28 1577.50,2069.28
             1559.42,2053.34 1548.59,2043.86 1534.36,2024.00
             1527.96,2015.07 1514.50,1999.69 1506.50,2002.43
             1498.50,2005.17 1491.02,2010.05 1486.50,2012.80
             1486.50,2012.80 1446.50,2037.95 1446.50,2037.95
             1429.56,2048.70 1415.95,2059.64 1388.50,2059.00
             1361.05,2058.36 1340.14,2051.64 1324.50,2049.43
             1308.86,2047.22 1307.23,2047.99 1285.50,2045.00
             1263.77,2042.00 1247.17,2032.71 1223.50,2021.26
             1200.52,2010.14 1189.86,2006.72 1171.59,1987.00
             1158.85,1973.26 1150.67,1954.07 1146.38,1936.00
             1143.35,1923.23 1143.23,1912.18 1136.49,1900.00
             1129.74,1887.82 1123.89,1880.55 1119.92,1874.00
             1115.95,1867.45 1111.95,1860.00 1105.41,1853.33
             1098.87,1846.65 1072.37,1831.03 1067.50,1828.95
             1049.82,1821.40 1020.21,1816.91 1000.50,1812.58
             985.97,1809.38 948.97,1801.85 935.50,1802.00
             920.23,1802.18 904.22,1806.47 890.50,1812.75
             879.62,1817.73 871.00,1821.75 860.50,1832.09
             850.00,1842.43 833.25,1865.41 811.50,1886.83
             789.75,1908.25 753.50,1921.75 718.50,1924.09
             683.50,1926.43 672.50,1922.50 654.67,1920.00
             636.83,1917.50 621.50,1912.50 602.67,1904.00
             583.83,1895.50 555.13,1879.14 539.33,1863.33
             508.99,1832.99 497.35,1810.75 489.00,1769.00
             486.25,1755.27 487.00,1732.00 489.50,1708.50
             492.00,1685.00 496.00,1676.00 497.50,1648.50
             499.00,1621.00 497.00,1585.50 506.50,1556.00
             516.00,1526.50 522.50,1522.00 539.00,1508.50
             555.50,1495.00 567.71,1485.61 584.50,1478.43
             602.80,1470.60 615.77,1471.27 633.50,1467.58
             651.23,1463.88 655.59,1463.22 677.50,1455.98
             699.41,1448.73 707.95,1441.82 727.50,1431.31
             747.05,1420.80 773.89,1411.39 789.50,1402.00
             793.92,1399.34 802.92,1393.48 806.07,1389.71
             809.23,1385.93 809.34,1377.01 810.30,1372.00
             812.31,1361.59 815.36,1352.49 820.10,1343.00
             824.96,1333.29 832.95,1321.75 840.51,1314.00
             844.20,1310.22 854.12,1302.73 856.76,1297.00
             859.41,1291.27 858.50,1272.00 863.97,1244.00
             869.45,1216.00 886.50,1184.00 903.29,1151.67
             920.07,1119.33 951.50,1075.00 957.40,1068.00
             963.30,1061.00 967.00,1054.68 975.50,1049.46
             984.00,1044.25 987.75,1037.75 987.00,1028.50
             986.25,1019.25 986.33,991.00 987.79,983.00
             989.25,975.00 993.21,958.75 998.48,948.00
             1003.75,937.25 1008.66,930.00 1021.33,917.00
             1034.00,904.00 1054.75,889.25 1080.50,886.00
             1106.25,882.75 1138.25,885.75 1150.50,886.00
             1162.75,886.25 1180.10,887.71 1189.50,889.89
             1198.95,892.08 1223.25,899.91 1231.50,903.21
             1239.75,906.50 1246.68,912.36 1252.49,910.77
             1258.29,909.18 1264.85,900.64 1268.50,897.00
             1277.51,888.00 1287.22,880.73 1298.50,874.78
             1311.87,867.72 1325.77,864.00 1339.50,860.42
             1353.23,856.85 1357.77,856.73 1371.50,850.91
             1385.23,845.09 1419.41,824.55 1431.50,819.45
             1443.59,814.36 1452.50,812.11 1464.50,808.05
             1476.50,804.00 1491.05,801.45 1503.50,801.00
             1515.95,800.55 1535.23,801.45 1553.50,801.00
             1571.77,800.55 1585.41,794.36 1602.50,790.66
             1619.59,786.96 1652.68,780.91 1672.50,779.21 Z" />
</svg>
